<svg id="Layer_1" data-name="Layer 1" xmlns="http://www.w3.org/2000/svg" viewBox="0 0 1200 1200"><defs><style>.cls-1{fill:#e9e8e8;}.cls-13,.cls-2,.cls-6,.cls-9{fill:#fff;}.cls-3{fill:#9dd5c0;}.cls-11,.cls-12,.cls-14,.cls-15,.cls-4,.cls-5,.cls-8{fill:none;}.cls-12,.cls-13,.cls-14,.cls-4,.cls-6{stroke:#231f20;}.cls-14,.cls-4,.cls-6{stroke-miterlimit:10;}.cls-10,.cls-11,.cls-12,.cls-13,.cls-14,.cls-4,.cls-5,.cls-6,.cls-8,.cls-9{stroke-width:4px;}.cls-10,.cls-11,.cls-5,.cls-9{stroke:#1d252e;}.cls-10,.cls-11,.cls-12,.cls-13,.cls-14,.cls-5,.cls-8,.cls-9{stroke-linecap:round;}.cls-7{fill:#1d252e;}.cls-8{stroke:#fff;}.cls-11,.cls-12,.cls-13,.cls-8{stroke-linejoin:round;}.cls-10{fill:#fffcf5;}</style></defs><path id="Oval" class="cls-1" d="M600,975.49c197.49,0,357.58-251.51,357.58-429.22S797.49,224.51,600,224.51,242.42,368.57,242.42,546.27,402.51,975.49,600,975.49Z"/><path class="cls-2" d="M488.92,353.15,413,427.37l-6.23,6.54-23,6.68L259.56,476.74c-58.87,21.77-40,100,26.66,91.64l148.57-43.23,23.34-6.79L471,504.85l8.37-8.79Z"/><polygon class="cls-3" points="470.98 504.85 458.13 518.36 434.79 525.15 383.77 440.6 406.75 433.91 412.98 427.37 470.98 504.85"/><line class="cls-4" x1="412.52" y1="442.41" x2="449" y2="496.06"/><path class="cls-5" d="M468.53,507.43l-10.4,10.93-171.91,50c-66.68,8.38-85.53-69.87-26.66-91.64l147.19-42.82,65.77-64.74"/><rect class="cls-2" x="551.5" y="324.68" width="140.41" height="24.08"/><path class="cls-3" d="M604.65,190.85h67a38.59,38.59,0,0,1,38.59,38.59v85.38a14.42,14.42,0,0,1-14.42,14.42H566.06a0,0,0,0,1,0,0v-99.8A38.59,38.59,0,0,1,604.65,190.85Z"/><path class="cls-3" d="M566.06,190.85h67a38.59,38.59,0,0,1,38.59,38.59v99.8a0,0,0,0,1,0,0H527.47a0,0,0,0,1,0,0v-99.8A38.59,38.59,0,0,1,566.06,190.85Z"/><polyline class="cls-5" points="671.61 329.24 527.47 329.24 527.47 234.9"/><path class="cls-5" d="M651.12,190.85h20.6a38.59,38.59,0,0,1,38.59,38.59v15.82"/><circle class="cls-6" cx="449.59" cy="777.79" r="20.04"/><polygon class="cls-3" points="477.85 1000.08 445.32 778.02 532.97 618.44 616.62 664.39 544.28 796.1 572.34 1001.1 477.85 1000.08"/><circle class="cls-6" cx="636.39" cy="799.19" r="20.04"/><polygon class="cls-3" points="676.65 1000.71 629.32 778.87 612.6 607.19 707.59 597.94 723.83 764.64 770.15 1000.71 676.65 1000.71"/><path class="cls-6" d="M592.46,1025.74v3.92a28,28,0,0,1-28.05,28h-95a28.05,28.05,0,0,1-28.06-28.06v-3.92a28,28,0,0,1,28.06-28h95A28.05,28.05,0,0,1,592.46,1025.74Z"/><circle class="cls-6" cx="561.28" cy="1027.39" r="20.04"/><circle class="cls-6" cx="561.28" cy="1027.39" r="11.02"/><line class="cls-6" x1="554.23" y1="1034.45" x2="569.06" y2="1019.63"/><line class="cls-6" x1="554.23" y1="1019.63" x2="569.06" y2="1034.45"/><path class="cls-6" d="M463,1027.39a20,20,0,0,1-15.65,19.54,27.94,27.94,0,0,1-5.94-17.27v-3.92a28,28,0,0,1,6.37-17.8A20,20,0,0,1,463,1027.39Z"/><rect class="cls-6" x="637.31" y="997.69" width="151.09" height="60.02" rx="28.05"/><path class="cls-6" d="M658.89,1027.39a20,20,0,0,1-15.64,19.54,27.88,27.88,0,0,1-5.94-17.27v-3.92a28,28,0,0,1,6.37-17.8A20,20,0,0,1,658.89,1027.39Z"/><circle class="cls-6" cx="757.21" cy="1027.39" r="20.04"/><circle class="cls-6" cx="757.21" cy="1027.39" r="11.59"/><line class="cls-6" x1="749.8" y1="1034.45" x2="764.63" y2="1019.63"/><line class="cls-6" x1="749.8" y1="1019.63" x2="764.63" y2="1034.45"/><line class="cls-5" x1="551.5" y1="336.72" x2="668.59" y2="336.72"/><rect class="cls-7" x="546.68" y="225.95" width="106.02" height="40.87" rx="20.44"/><rect class="cls-7" x="561.24" y="279.74" width="76.89" height="22.5" rx="11.25"/><line class="cls-8" x1="571.41" y1="290.99" x2="625.51" y2="290.99"/><rect class="cls-2" x="615.72" y="239.19" width="12.98" height="12.98"/><rect class="cls-2" x="568.3" y="239.19" width="12.98" height="12.98"/><rect class="cls-7" x="680.71" y="240.9" width="18.02" height="46.44" rx="9.01"/><line class="cls-5" x1="671.61" y1="229.44" x2="671.61" y2="298.79"/><rect class="cls-5" x="651.12" y="158.92" width="20.49" height="31.93"/><line class="cls-5" x1="661.37" y1="158.92" x2="661.37" y2="142.28"/><path class="cls-9" d="M636.26,814.1l89.43-9.24c12.53-.24,8.9-30.08-3.63-29.83l-89.42,9.23C621.24,785.76,624.27,815.78,636.26,814.1Z"/><line class="cls-9" x1="634.45" y1="799.18" x2="723.88" y2="789.94"/><path class="cls-9" d="M445,792.61,535.43,811c12.36,3.58,17.55-26.06,5.18-29.63L450.16,763C438.54,760.94,432.72,790.57,445,792.61Z"/><line class="cls-9" x1="447.56" y1="777.79" x2="538.02" y2="796.17"/><path class="cls-2" d="M707.92,458.78l38.21,39.73L751,528.75l.43,2.64,19.1,118.46c14.24,74.09,94.23,66.64,94.23-15.19l-24.58-152.4-3.92-24.35-12.71-15.5-48-56.93Z"/><polygon class="cls-3" points="840.18 482.26 751.43 531.38 751 528.75 746.13 498.51 823.55 442.41 836.26 457.91 840.18 482.26"/><path class="cls-3" d="M746.13,498.51,751,528.75,709.34,587.1v65.3a20,20,0,0,1-20,20H535.26a19.94,19.94,0,0,1-20-20V587.1S485.93,527,478.43,509.43s-7.89-123.95-4.07-138.31c2.87-10.78,15.13-28.6,31.06-28.6h222.8c12,0,56.4,51,56.4,51L718.22,468Z"/><path class="cls-5" d="M786,396.64l50.23,61.27,28.5,176.75c0,81.83-80,89.28-94.23,15.19L751,528.75l-4.87-30.24-19.39-23.66"/><path class="cls-10" d="M309.84,500.09a14.32,14.32,0,0,1-5.9,3l-32.53,8a14.26,14.26,0,0,1-17.25-10.45h0a14.26,14.26,0,0,1,10.45-17.26l32.52-8"/><path class="cls-5" d="M471.69,405c-7,118.42,19.67,127.44,43.61,182.1"/><line class="cls-5" x1="740.24" y1="543.82" x2="709.34" y2="587.1"/><rect class="cls-7" x="515.84" y="385.48" width="153.24" height="64.8"/><rect class="cls-11" x="599.54" y="457.15" width="69.54" height="15.49"/><rect class="cls-2" x="642.05" y="393.48" width="18.23" height="18.94"/><rect class="cls-8" x="526.39" y="395.21" width="104.92" height="15.49"/><rect class="cls-2" x="642.05" y="416.94" width="18.23" height="7.19"/><rect class="cls-2" x="642.05" y="428.66" width="18.23" height="7.19"/><rect class="cls-11" x="571.41" y="457.15" width="17.97" height="15.49"/><line class="cls-5" x1="561.24" y1="457.15" x2="515.84" y2="457.15"/><line class="cls-5" x1="561.24" y1="464.02" x2="533.89" y2="464.02"/><circle class="cls-6" cx="547.56" cy="800.98" r="20.04"/><circle class="cls-6" cx="547.56" cy="800.98" r="10.31"/><line class="cls-6" x1="547.56" y1="800.98" x2="554.23" y2="793.12"/><line class="cls-6" x1="547.56" y1="800.98" x2="555.42" y2="807.65"/><line class="cls-6" x1="547.56" y1="800.98" x2="540.89" y2="808.83"/><line class="cls-6" x1="547.56" y1="800.98" x2="539.71" y2="794.31"/><circle class="cls-6" cx="732.71" cy="790.67" r="20.04"/><circle class="cls-6" cx="732.71" cy="790.67" r="10.31"/><line class="cls-6" x1="732.71" y1="790.67" x2="739.38" y2="782.82"/><line class="cls-6" x1="732.71" y1="790.67" x2="740.57" y2="797.34"/><line class="cls-6" x1="732.71" y1="790.67" x2="726.04" y2="798.52"/><line class="cls-6" x1="732.71" y1="790.67" x2="724.86" y2="784"/><circle class="cls-6" cx="836.26" cy="457.91" r="20.04"/><circle class="cls-6" cx="836.26" cy="457.91" r="10.31"/><line class="cls-6" x1="836.26" y1="457.91" x2="842.93" y2="450.05"/><line class="cls-6" x1="836.26" y1="457.91" x2="844.11" y2="464.58"/><line class="cls-6" x1="836.26" y1="457.91" x2="829.59" y2="465.76"/><line class="cls-6" x1="836.26" y1="457.91" x2="828.41" y2="451.24"/><circle class="cls-6" cx="452.92" cy="516.1" r="20.04"/><circle class="cls-6" cx="452.92" cy="516.1" r="10.31"/><line class="cls-6" x1="452.92" y1="516.1" x2="459.59" y2="508.24"/><line class="cls-6" x1="452.92" y1="516.1" x2="460.77" y2="522.77"/><line class="cls-6" x1="452.92" y1="516.1" x2="446.25" y2="523.95"/><line class="cls-6" x1="452.92" y1="516.1" x2="445.07" y2="509.43"/><line class="cls-12" x1="551.5" y1="848.83" x2="571.1" y2="992.01"/><line class="cls-12" x1="450.16" y1="804.31" x2="476.16" y2="988.54"/><line class="cls-12" x1="642.05" y1="838.5" x2="674.05" y2="988.54"/><line class="cls-12" x1="767.77" y1="988.54" x2="734.54" y2="819.22"/><line class="cls-13" x1="757.99" y1="507.43" x2="819.07" y2="468.21"/><path class="cls-14" d="M515.31,652.4s83.08,20,101,20,96.33-20.67,96.33-20.67"/><path class="cls-5" d="M691.91,332.83v9.69s28.83-2.19,36.31,0a38.41,38.41,0,0,1,13.34,7.53"/><rect class="cls-15" width="1200" height="1200"/></svg>